<?xml version="1.0" encoding="UTF-8"?>
<svg version="1.1" xmlns="http://www.w3.org/2000/svg" width="180" height="180">
<path d="M0 0 C0.75796875 0.61359375 1.5159375 1.2271875 2.296875 1.859375 C3.68132812 2.90351562 3.68132812 2.90351562 5.09375 3.96875 C5.82078125 4.59265625 6.5478125 5.2165625 7.296875 5.859375 C7.296875 6.519375 7.296875 7.179375 7.296875 7.859375 C7.956875 7.859375 8.616875 7.859375 9.296875 7.859375 C20.61757557 19.57935339 27.82765682 33.33770351 32.296875 48.859375 C32.49265137 49.53282959 32.68842773 50.20628418 32.89013672 50.90014648 C38.76697115 73.73906638 33.95871553 98.76299446 22.296875 118.859375 C7.97121115 141.28318272 -13.40253762 155.45456238 -39.06811523 161.40795898 C-64.67124199 165.79415201 -88.34072948 159.57418668 -109.203125 144.859375 C-128.50898739 130.68234149 -140.20653941 110.44106204 -145.28515625 87.1953125 C-148.55255489 61.11719625 -143.13152089 36.71025086 -126.890625 15.796875 C-95.48595051 -22.1257508 -39.55576015 -30.48564954 0 0 Z " fill="#DC5E34" transform="translate(145.703125,18.140625)"/>
<path d="M0 0 C0.75796875 0.61359375 1.5159375 1.2271875 2.296875 1.859375 C3.68132812 2.90351562 3.68132812 2.90351562 5.09375 3.96875 C5.82078125 4.59265625 6.5478125 5.2165625 7.296875 5.859375 C7.296875 6.519375 7.296875 7.179375 7.296875 7.859375 C7.956875 7.859375 8.616875 7.859375 9.296875 7.859375 C20.61757557 19.57935339 27.82765682 33.33770351 32.296875 48.859375 C32.49265137 49.53282959 32.68842773 50.20628418 32.89013672 50.90014648 C38.67198157 73.36991195 33.84428346 97.07013026 23.3125 117.19335938 C21.94628612 119.43447561 20.27369085 121.14731127 18.296875 122.859375 C12.0913066 116.73481924 10.49208999 111.88784832 10.37109375 103.22265625 C10.30618479 100.28125556 9.89620599 97.88826968 9.234375 95.046875 C8.86711151 92.07587783 9.09058478 91.15288159 10.83984375 88.6640625 C12.24843748 87.14711541 13.68728809 85.65780239 15.15234375 84.1953125 C19.33336727 79.6411193 21.98663623 73.88647332 23.296875 67.859375 C22.59175781 68.57867187 21.88664063 69.29796875 21.16015625 70.0390625 C11.01127303 80.17009682 4.09902334 85.859375 -10.703125 85.859375 C-10.703125 73.649375 -10.703125 61.439375 -10.703125 48.859375 C-9.713125 48.859375 -8.723125 48.859375 -7.703125 48.859375 C-7.97576172 48.35486816 -8.24839844 47.85036133 -8.52929688 47.33056641 C-9.75820286 45.05078826 -10.98072874 42.7676497 -12.203125 40.484375 C-12.63238281 39.6903125 -13.06164062 38.89625 -13.50390625 38.078125 C-13.90996094 37.31757812 -14.31601563 36.55703125 -14.734375 35.7734375 C-15.11142578 35.0717041 -15.48847656 34.3699707 -15.87695312 33.64697266 C-16.703125 31.859375 -16.703125 31.859375 -16.703125 29.859375 C-19.72213388 32.40308802 -20.83238671 35.16211082 -22.265625 38.796875 C-23.62995807 42.22683384 -24.99192032 45.58679462 -26.703125 48.859375 C-25.713125 48.859375 -24.723125 48.859375 -23.703125 48.859375 C-23.703125 51.829375 -23.703125 54.799375 -23.703125 57.859375 C-24.363125 57.859375 -25.023125 57.859375 -25.703125 57.859375 C-25.703125 56.209375 -25.703125 54.559375 -25.703125 52.859375 C-29.993125 52.859375 -34.283125 52.859375 -38.703125 52.859375 C-38.703125 46.589375 -38.703125 40.319375 -38.703125 33.859375 C-47.943125 33.859375 -57.183125 33.859375 -66.703125 33.859375 C-66.703125 42.109375 -66.703125 50.359375 -66.703125 58.859375 C-67.363125 58.859375 -68.023125 58.859375 -68.703125 58.859375 C-68.88875 57.951875 -69.074375 57.044375 -69.265625 56.109375 C-70.91482412 50.18447445 -74.51184442 45.05587199 -77.703125 39.859375 C-79.353125 42.829375 -81.003125 45.799375 -82.703125 48.859375 C-86.25225833 47.67633056 -86.37869406 46.99441763 -88.20703125 43.90625 C-90.75210846 40.41254598 -92.53308479 39.17551511 -96.79296875 38.375 C-99.66914854 38.10486731 -99.66914854 38.10486731 -102.640625 38.109375 C-103.65519775 38.09390625 -104.66977051 38.0784375 -105.71508789 38.0625 C-111.88538366 38.43790895 -115.30960894 39.78026465 -119.546875 44.34375 C-123.40547414 49.22140939 -126.70285014 54.41617428 -129.703125 59.859375 C-128.218125 60.354375 -128.218125 60.354375 -126.703125 60.859375 C-126.703125 69.109375 -126.703125 77.359375 -126.703125 85.859375 C-132.313125 85.859375 -137.923125 85.859375 -143.703125 85.859375 C-144.033125 87.179375 -144.363125 88.499375 -144.703125 89.859375 C-149.55294826 67.06914861 -144.63472962 42.86464385 -132.359375 23.29296875 C-117.32021682 1.19533775 -97.08498551 -12.07961623 -70.99609375 -17.7265625 C-45.2495828 -20.96396483 -20.69923298 -15.95291204 0 0 Z " fill="#F99E51" transform="translate(145.703125,18.140625)"/>
<path d="M0 0 C9.24 0 18.48 0 28 0 C28 6.27 28 12.54 28 19 C32.29 19 36.58 19 41 19 C41 19.33 41 19.66 41 20 C38.69 20 36.38 20 34 20 C34 25.94 34 31.88 34 38 C31.36 38 28.72 38 26 38 C26 39.32 26 40.64 26 42 C28.64 42 31.28 42 34 42 C34 45.96 34 49.92 34 54 C31.36 54 28.72 54 26 54 C26 54.99 26 55.98 26 57 C28.64 57 31.28 57 34 57 C34 58.65 34 60.3 34 62 C28.72 62 23.44 62 18 62 C17.97421875 60.61425781 17.9484375 59.22851562 17.921875 57.80078125 C17.86558398 55.9713231 17.80823687 54.14189724 17.75 52.3125 C17.73582031 51.40048828 17.72164062 50.48847656 17.70703125 49.54882812 C17.55034523 45.23996255 17.38050466 42.62944767 15.11328125 38.87890625 C13.14375389 36.78144509 13.14375389 36.78144509 10.4375 36.625 C7.86901927 36.95016221 7.86901927 36.95016221 5 38 C2.32782666 42.53542347 2.55821612 47.69389972 2.375 52.8125 C2.33632812 53.69615234 2.29765625 54.57980469 2.2578125 55.49023438 C2.16399216 57.65982972 2.08092674 59.82988547 2 62 C-3.61 62 -9.22 62 -15 62 C-15 58.04 -15 54.08 -15 50 C-13.02 50 -11.04 50 -9 50 C-9 49.01 -9 48.02 -9 47 C-10.98 47 -12.96 47 -15 47 C-15 38.09 -15 29.18 -15 20 C-12.36 20 -9.72 20 -7 20 C-7 21.65 -7 23.3 -7 25 C-5.68 25 -4.36 25 -3 25 C-3 23.02 -3 21.04 -3 19 C-2.67 19 -2.34 19 -2 19 C-2 20.98 -2 22.96 -2 25 C-1.34 25 -0.68 25 0 25 C0 16.75 0 8.5 0 0 Z " fill="#EA7F38" transform="translate(79,52)"/>
<path d="M0 0 C8.91 0 17.82 0 27 0 C27 2.64 27 5.28 27 8 C29.31 8 31.62 8 34 8 C34 16.91 34 25.82 34 35 C35.65 35 37.3 35 39 35 C40.71039781 36.71039781 40.29301542 38.85093956 40.375 41.1875 C40.34038099 44.99559131 40.21321674 47.53714536 37.8125 50.5625 C35.14076738 52.8780016 33.42508826 54.20959502 30 55 C28.6566047 54.70986562 27.32011044 54.38235757 26 54 C27.04800781 53.51080078 27.04800781 53.51080078 28.1171875 53.01171875 C29.02726562 52.57472656 29.93734375 52.13773438 30.875 51.6875 C31.77992187 51.25824219 32.68484375 50.82898438 33.6171875 50.38671875 C36.26449476 49.0800612 36.26449476 49.0800612 38 46 C38.25015873 42.41642759 38.25015873 42.41642759 38 39 C36.90201339 37.68810584 36.90201339 37.68810584 34.1875 37.75 C30.58973045 38.032178 29.51904641 38.48630188 27 41 C26.37616664 43.69513477 26.37616664 43.69513477 26.375 46.625 C26.2734375 49.6015625 26.2734375 49.6015625 26 52 C25.01 52.495 25.01 52.495 24 53 C24.33 50.36 24.66 47.72 25 45 C23.78183594 45.15339844 22.56367187 45.30679688 21.30859375 45.46484375 C19.68508947 45.62437885 18.06137851 45.7818203 16.4375 45.9375 C15.63763672 46.04384766 14.83777344 46.15019531 14.01367188 46.25976562 C10.57253663 46.55472007 8.01790266 46.65106689 5.04150391 44.74731445 C1.73311317 41.60023148 -0.40476636 39.28881574 -0.79467773 34.62524414 C-0.79358423 33.01145703 -0.75489274 31.39736793 -0.68359375 29.78515625 C-0.67368912 28.92941513 -0.66378448 28.07367401 -0.65357971 27.19200134 C-0.61464393 24.48036353 -0.52687491 21.77289665 -0.4375 19.0625 C-0.40235863 17.2155536 -0.37042457 15.36854322 -0.34179688 13.52148438 C-0.27091632 9.0114559 -0.13397074 4.51034816 0 0 Z " fill="#F89E4F" transform="translate(22,111)"/>
<path d="M0 0 C0.99829834 -0.02586182 1.99659668 -0.05172363 3.02514648 -0.07836914 C7.44472371 0.09912244 10.23519602 0.34349283 13.50634766 3.47558594 C15.39453125 5.9609375 15.39453125 5.9609375 16.98364258 8.45458984 C17.42216553 9.0883252 17.86068848 9.72206055 18.3125 10.375 C18.9725 10.375 19.6325 10.375 20.3125 10.375 C21.9625 7.405 23.6125 4.435 25.3125 1.375 C34.18206522 13.20108696 34.18206522 13.20108696 33.3125 21.375 C31.9925 21.375 30.6725 21.375 29.3125 21.375 C29.3125 19.725 29.3125 18.075 29.3125 16.375 C26.6725 16.375 24.0325 16.375 21.3125 16.375 C21.3125 25.285 21.3125 34.195 21.3125 43.375 C23.2925 43.375 25.2725 43.375 27.3125 43.375 C27.3125 44.365 27.3125 45.355 27.3125 46.375 C25.3325 46.375 23.3525 46.375 21.3125 46.375 C21.3125 47.035 21.3125 47.695 21.3125 48.375 C14.7125 48.375 8.1125 48.375 1.3125 48.375 C1.36792969 46.66054687 1.42335938 44.94609375 1.48046875 43.1796875 C1.69633247 26.14505423 1.69633247 26.14505423 -6.82543945 12.03466797 C-8.07102172 10.77215704 -9.37323634 9.56584846 -10.6875 8.375 C-14.8782081 12.35760787 -17.81742727 16.47405703 -20.84375 21.36328125 C-22.6875 23.375 -22.6875 23.375 -25.40625 23.66796875 C-26.53546875 23.52294922 -26.53546875 23.52294922 -27.6875 23.375 C-26.36619957 21.29636884 -25.01223327 19.25932921 -23.59765625 17.2421875 C-21.58872092 14.33842777 -21.58872092 14.33842777 -19.87109375 10.8828125 C-14.93078457 2.14189981 -10.03195755 0.13296219 0 0 Z " fill="#C84A2F" transform="translate(42.6875,55.625)"/>
<path d="M0 0 C0.66 0 1.32 0 2 0 C1.21841193 7.81588071 -1.85175227 12.95765874 -7.3125 18.4375 C-10.10462741 21.36439468 -10.10462741 21.36439468 -11.328125 25.078125 C-11.09506325 27.21962799 -11.09506325 27.21962799 -10.546875 29.41015625 C-9.85911484 32.66719185 -9.88288785 35.79917427 -9.8125 39.125 C-9.45560222 44.9418077 -8.4423246 47.65410502 -4.234375 51.6015625 C-3 53 -3 53 -3.125 55.9375 C-3.558125 56.9584375 -3.558125 56.9584375 -4 58 C-7.12688787 56.58378621 -9.53900915 54.87668024 -12.125 52.625 C-12.80820313 52.03976563 -13.49140625 51.45453125 -14.1953125 50.8515625 C-17.40748886 47.55595299 -18 45.64688608 -18 41 C-21.28880556 42.13052691 -23.69700951 43.35863152 -26 46 C-26.7286245 50.73070169 -26.46286541 55.24920084 -26 60 C-27.859375 59.7578125 -27.859375 59.7578125 -30 59 C-33.28511996 54.27510525 -34.96526245 48.68432334 -34 43 C-31.92382101 39.56083328 -29.34559281 37.23039521 -26 35 C-25.74969023 32.41619823 -25.74969023 32.41619823 -26 30 C-27.65614657 29.61781233 -29.32457024 29.28604898 -31 29 C-31.33 29.33 -31.66 29.66 -32 30 C-38.33841463 30.4695122 -38.33841463 30.4695122 -40.9375 28.625 C-42 27 -42 27 -42 25 C-42.66 25 -43.32 25 -44 25 C-44.66 26.32 -45.32 27.64 -46 29 C-46.99 28.67 -47.98 28.34 -49 28 C-47.44298069 23.32894208 -44.91552627 19.91294315 -42 16 C-40.68 16.33 -39.36 16.66 -38 17 C-38.33 18.98 -38.66 20.96 -39 23 C-37.32171592 23.96624167 -37.32171592 23.96624167 -35 24 C-33.56741833 22.8006293 -32.14057506 21.59279911 -30.76171875 20.33203125 C-28.16018681 18.3650193 -25.37957859 17.66715435 -22.2890625 16.7265625 C-13.89747686 14.06302166 -6.57160261 8.90988808 -1.36328125 1.75 C-0.91339844 1.1725 -0.46351563 0.595 0 0 Z " fill="#A72F2B" transform="translate(167,86)"/>
<path d="M0 0 C0.66 0 1.32 0 2 0 C3.5066972 2.7881022 5.00419804 5.58103958 6.5 8.375 C6.92925781 9.1690625 7.35851562 9.963125 7.80078125 10.78125 C8.40986328 11.92207031 8.40986328 11.92207031 9.03125 13.0859375 C9.40830078 13.7876709 9.78535156 14.4894043 10.17382812 15.21240234 C11 17 11 17 11 19 C10.01 19 9.02 19 8 19 C8 26.92 8 34.84 8 43 C5.36 43 2.72 43 0 43 C0 45.31 0 47.62 0 50 C-1.32 50 -2.64 50 -4 50 C-3.938125 50.94875 -3.87625 51.8975 -3.8125 52.875 C-3.874375 53.90625 -3.93625 54.9375 -4 56 C-7 58 -7 58 -13 57 C-13 46.11 -13 35.22 -13 24 C-11.02 24 -9.04 24 -7 24 C-7 25.32 -7 26.64 -7 28 C-6.34 28 -5.68 28 -5 28 C-5 25.03 -5 22.06 -5 19 C-5.99 19 -6.98 19 -8 19 C-6.00386732 12.2813095 -3.2708579 6.19265192 0 0 Z " fill="#B73D2C" transform="translate(127,48)"/>
<path d="M0 0 C1.73086563 1.62268653 3.36422124 3.28301581 5 5 C5.69158203 5.68626465 6.38316406 6.3725293 7.09570312 7.07958984 C12.4929964 12.96042078 13.88277815 17.17144189 13.703125 25.12109375 C13.63609375 26.27738281 13.5690625 27.43367188 13.5 28.625 C13.46390625 29.81996094 13.4278125 31.01492187 13.390625 32.24609375 C13.29713987 35.16750415 13.16626886 38.08198148 13 41 C10.36 41 7.72 41 5 41 C4.95101562 40.15695313 4.90203125 39.31390625 4.8515625 38.4453125 C4.77679688 37.34960938 4.70203125 36.25390625 4.625 35.125 C4.55539063 34.03445312 4.48578125 32.94390625 4.4140625 31.8203125 C4.26746509 28.86953526 4.26746509 28.86953526 2 27 C0.35 27 -1.3 27 -3 27 C-3.33 31.62 -3.66 36.24 -4 41 C-6.64 41 -9.28 41 -12 41 C-14.28271457 16.53398226 -14.28271457 16.53398226 -6 6.4375 C-4.06966586 4.19034283 -2.09908875 2.09596511 0 0 Z " fill="#EA7935" transform="translate(31,63)"/>
<path d="M0 0 C0.66 0.33 1.32 0.66 2 1 C1.8453125 2.6396875 1.8453125 2.6396875 1.6875 4.3125 C1.790625 5.529375 1.89375 6.74625 2 8 C4.3726974 10.00864359 4.3726974 10.00864359 7 11 C7 8.69 7 6.38 7 4 C7.33 4 7.66 4 8 4 C8.16276042 6.01822917 8.32552083 8.03645833 8.48828125 10.0546875 C8.87393036 12.39519216 8.87393036 12.39519216 12 14 C13.93623193 14.18410397 13.93623193 14.18410397 16.01171875 13.9765625 C16.76904297 13.925 17.52636719 13.8734375 18.30664062 13.8203125 C19.09232422 13.75585938 19.87800781 13.69140625 20.6875 13.625 C21.88342773 13.53992188 21.88342773 13.53992188 23.10351562 13.453125 C25.06973581 13.31183972 27.03498824 13.15720094 29 13 C28.51515724 8.35413108 28.51515724 8.35413108 27 4 C29.31 4.66 31.62 5.32 34 6 C33.01 6.33 32.02 6.66 31 7 C31 8.65 31 10.3 31 12 C34.3 12 37.6 12 41 12 C41 12.66 41 13.32 41 14 C39.68 14 38.36 14 37 14 C37 16.31 37 18.62 37 21 C38.32 21 39.64 21 41 21 C41 20.34 41 19.68 41 19 C45.75 20.875 45.75 20.875 48 22 C48 22.66 48 23.32 48 24 C43.89338458 24.57749879 39.7857367 25.14681194 35.67700195 25.70898438 C34.28314603 25.9008186 32.88958091 26.09477958 31.49633789 26.29101562 C27.00385959 26.92289632 22.50884024 27.4941225 18 28 C17.11199707 28.10143311 16.22399414 28.20286621 15.30908203 28.30737305 C9.15716733 28.69244765 5.56917369 26.45022898 0.75 22.8125 C0.069375 22.32974609 -0.61125 21.84699219 -1.3125 21.34960938 C-5.23336147 18.51914252 -8.68310969 15.51616085 -12 12 C-9.69 12 -7.38 12 -5 12 C-5 12.66 -5 13.32 -5 14 C-3.8553125 14.433125 -3.8553125 14.433125 -2.6875 14.875 C0 16 0 16 3 18 C3.0565109 14.63147485 3.0565109 14.63147485 2 11 C-0.2231534 9.1455908 -2.32830337 8.21440756 -5 7 C-4.67 6.34 -4.34 5.68 -4 5 C-2.68 5.66 -1.36 6.32 0 7 C0 4.69 0 2.38 0 0 Z " fill="#A8302B" transform="translate(89,133)"/>
<path d="M0 0 C0.66 0 1.32 0 2 0 C2.5878125 0.99 2.5878125 0.99 3.1875 2 C4.93141102 4.37711265 4.93141102 4.37711265 8.375 4.3125 C11.88644308 4.09030599 11.88644308 4.09030599 14.8125 3.375 C15.534375 3.25125 16.25625 3.1275 17 3 C19 5 19 5 19.5625 7.25 C18.77749327 11.08781067 16.6584296 12.34839431 13.62890625 14.66796875 C11.53911157 16.37688958 11.0723323 17.50528277 10.68359375 20.1640625 C10.60238281 20.97617188 10.52117187 21.78828125 10.4375 22.625 C10.35371094 23.44226563 10.26992187 24.25953125 10.18359375 25.1015625 C10.09271484 26.04128906 10.09271484 26.04128906 10 27 C7.54101345 27.08076963 5.08466258 27.14037143 2.625 27.1875 C1.92632812 27.21263672 1.22765625 27.23777344 0.5078125 27.26367188 C-1.5234375 27.29296875 -1.5234375 27.29296875 -5 27 C-5.66 26.01 -6.32 25.02 -7 24 C-3.04 23.505 -3.04 23.505 1 23 C0.44014404 23.04600342 -0.11971191 23.09200684 -0.6965332 23.1394043 C-3.23420617 23.33861807 -5.77299189 23.51330991 -8.3125 23.6875 C-9.19357422 23.76033203 -10.07464844 23.83316406 -10.98242188 23.90820312 C-11.82998047 23.96298828 -12.67753906 24.01777344 -13.55078125 24.07421875 C-14.72120972 24.16062622 -14.72120972 24.16062622 -15.9152832 24.2487793 C-18.57699184 23.93114478 -19.19377034 22.89467432 -21 21 C-23.60517097 20.80831518 -25.97182287 20.7622553 -28.5625 20.875 C-35.78779841 21.1061008 -35.78779841 21.1061008 -38 20 C-38 19.34 -38 18.68 -38 18 C-35.10452736 17.66324721 -32.20868928 17.33048266 -29.3125 17 C-28.49587891 16.90460938 -27.67925781 16.80921875 -26.83789062 16.7109375 C-22.87139948 16.26129478 -18.99997537 15.86965457 -15 16 C-15 16.99 -15 17.98 -15 19 C-14.278125 18.278125 -13.55625 17.55625 -12.8125 16.8125 C-10.97869324 14.97869324 -9.10452763 13.18412518 -7.1875 11.4375 C-4.55472684 9.04969567 -4.55472684 9.04969567 -5 5 C-6.939509 5.19188156 -6.939509 5.19188156 -9 6 C-10.34231442 7.83983424 -10.34231442 7.83983424 -11.25 10.0625 C-11.75273438 11.16271484 -11.75273438 11.16271484 -12.265625 12.28515625 C-12.50796875 12.85105469 -12.7503125 13.41695312 -13 14 C-13.33 13.34 -13.66 12.68 -14 12 C-11.01287554 3.78540773 -11.01287554 3.78540773 -8 2 C-4.8125 2.3125 -4.8125 2.3125 -2 3 C-1.34 2.01 -0.68 1.02 0 0 Z " fill="#DD5F33" transform="translate(123,111)"/>
<path d="M0 0 C0.88365234 0.07476562 1.76730469 0.14953125 2.67773438 0.2265625 C4.85186544 0.41459546 7.01900963 0.63140657 9.1875 0.875 C8.10228759 13.91962103 3.16433056 25.85617692 -3.8125 36.875 C-4.8025 37.37 -4.8025 37.37 -5.8125 37.875 C-12.01808457 31.75042828 -13.60069472 26.909706 -13.75 18.25 C-13.81603562 14.68407673 -14.34716931 11.40958203 -15.1171875 7.9375 C-14.69947032 5.109876 -13.43314616 3.17580029 -11.54589844 1.06542969 C-8.04512466 -1.33876368 -4.03113708 -0.45692232 0 0 Z " fill="#DD6035" transform="translate(169.8125,103.125)"/>
<path d="M0 0 C0 8.25 0 16.5 0 25 C-1.98 25 -3.96 25 -6 25 C-6 23.35 -6 21.7 -6 20 C-8.31 20 -10.62 20 -13 20 C-13 21.65 -13 23.3 -13 25 C-14.98 25 -16.96 25 -19 25 C-19 23.35 -19 21.7 -19 20 C-21.31 20 -23.62 20 -26 20 C-26 21.65 -26 23.3 -26 25 C-26.33 25 -26.66 25 -27 25 C-27 17.08 -27 9.16 -27 1 C-22.8234375 0.7525 -22.8234375 0.7525 -18.5625 0.5 C-17.70470947 0.44779297 -16.84691895 0.39558594 -15.96313477 0.34179688 C-15.25471436 0.30119141 -14.54629395 0.26058594 -13.81640625 0.21875 C-13.10943604 0.17685547 -12.40246582 0.13496094 -11.67407227 0.09179688 C-7.78488546 -0.04171305 -3.89147772 0 0 0 Z " fill="#CC4C2F" transform="translate(107,52)"/>
<path d="M0 0 C8.86956522 11.82608696 8.86956522 11.82608696 8 20 C6.68 20 5.36 20 4 20 C4 18.35 4 16.7 4 15 C1.36 15 -1.28 15 -4 15 C-4 17.31 -4 19.62 -4 22 C-9.35097829 22.91672851 -14.73877774 23.69681685 -20 22 C-25.2051405 18.17356973 -28.60348483 12.39397637 -32 7 C-32.77259304 5.83364578 -33.54830547 4.66934755 -34.328125 3.5078125 C-34.87984375 2.68023437 -35.4315625 1.85265625 -36 1 C-32.29273774 0.76655651 -28.5873688 0.62523654 -24.875 0.5 C-23.30492187 0.39945313 -23.30492187 0.39945313 -21.703125 0.296875 C-13.99438947 0.10171714 -13.99438947 0.10171714 -10.98925781 2.81640625 C-9.3828125 5.03125 -9.3828125 5.03125 -8.09033203 7.26757812 C-7.55061768 8.12512695 -7.55061768 8.12512695 -7 9 C-6.34 9 -5.68 9 -5 9 C-3.35 6.03 -1.7 3.06 0 0 Z " fill="#A62E2C" transform="translate(68,57)"/>
<path d="M0 0 C0.66 0 1.32 0 2 0 C2 0.66 2 1.32 2 2 C2.9075 2.12375 3.815 2.2475 4.75 2.375 C7.58970323 2.92109677 9.52590591 3.57263803 12 5 C8.79663178 7.83374881 6.21912747 8.5205537 2 9 C3.71591502 16.89320908 8.07014775 23.00749817 12.39453125 29.71875 C12.80437256 30.35482178 13.21421387 30.99089355 13.63647461 31.64624023 C14.4555627 32.91354212 15.27794275 34.17872299 16.10375977 35.44165039 C19 39.89315238 19 39.89315238 19 41 C7.45 41 -4.1 41 -16 41 C-14.60102436 37.50256089 -13.39802046 34.80445214 -11.46875 31.6796875 C-10.98792969 30.89722656 -10.50710937 30.11476563 -10.01171875 29.30859375 C-9.51285156 28.50550781 -9.01398438 27.70242187 -8.5 26.875 C-8.00113281 26.06417969 -7.50226563 25.25335938 -6.98828125 24.41796875 C-5.03329821 21.2470177 -3.06659593 18.0998939 -1 15 C-0.70008931 12.41114829 -0.49134775 9.90850918 -0.375 7.3125 C-0.31699219 6.2596582 -0.31699219 6.2596582 -0.2578125 5.18554688 C-0.1637666 3.45745345 -0.0808032 1.72876325 0 0 Z " fill="#CE4D30" transform="translate(92,8)"/>
<path d="M0 0 C4.64731257 4.64731257 8.38434745 9.2973529 12.25 14.5625 C13.20519531 15.83770508 13.20519531 15.83770508 14.1796875 17.13867188 C15.08847656 18.37133789 15.08847656 18.37133789 16.015625 19.62890625 C16.56508789 20.37213135 17.11455078 21.11535645 17.68066406 21.88110352 C18.99753579 23.9960424 19.74779338 25.52203726 20 28 C18 30 18 30 16.12060547 30.22705078 C15.37697754 30.21657715 14.63334961 30.20610352 13.8671875 30.1953125 C12.77833252 30.18781982 12.77833252 30.18781982 11.66748047 30.18017578 C10.28520264 30.15286377 10.28520264 30.15286377 8.875 30.125 C5.94625 30.08375 3.0175 30.0425 0 30 C0 20.1 0 10.2 0 0 Z " fill="#C9472E" transform="translate(31,120)"/>
<path d="M0 0 C3.46295809 0.79914418 4.37776938 1.61324211 6.4375 4.5625 C6.94159444 8.32151649 6.81235016 12.02857962 6.6875 15.8125 C6.66945313 16.84375 6.65140625 17.875 6.6328125 18.9375 C6.58573723 21.4795645 6.51399546 24.02115067 6.4375 26.5625 C1.8175 26.5625 -2.8025 26.5625 -7.5625 26.5625 C-7.69766583 23.16533223 -7.79669231 19.77355392 -7.875 16.375 C-7.91689453 15.41529297 -7.95878906 14.45558594 -8.00195312 13.46679688 C-8.12573446 6.31223593 -8.12573446 6.31223593 -5.203125 2.421875 C-2.5625 0.5625 -2.5625 0.5625 0 0 Z " fill="#A42D2B" transform="translate(89.5625,87.4375)"/>
<path d="M0 0 C0.66 0 1.32 0 2 0 C3.5066972 2.7881022 5.00419804 5.58103958 6.5 8.375 C6.92925781 9.1690625 7.35851562 9.963125 7.80078125 10.78125 C8.40986328 11.92207031 8.40986328 11.92207031 9.03125 13.0859375 C9.40830078 13.7876709 9.78535156 14.4894043 10.17382812 15.21240234 C11 17 11 17 11 19 C10.01 19 9.02 19 8 19 C8 21.97 8 24.94 8 28 C7.01 28 6.02 28 5 28 C5 26.68 5 25.36 5 24 C3.02 24 1.04 24 -1 24 C-1 25.65 -1 27.3 -1 29 C-2.98 29 -4.96 29 -7 29 C-6.34 28.67 -5.68 28.34 -5 28 C-5 25.03 -5 22.06 -5 19 C-5.99 19 -6.98 19 -8 19 C-6.00386732 12.2813095 -3.2708579 6.19265192 0 0 Z " fill="#CD4D2F" transform="translate(127,48)"/>
<path d="M0 0 C5.445 1.485 5.445 1.485 11 3 C6.96314468 7.03685532 6.2676092 7.52112644 1 8 C2.414261 14.50560061 5.46425191 19.41198074 9 25 C10.09664511 26.76059001 11.18896417 28.52376659 12.27880859 30.28857422 C13.33535675 31.99834681 14.39803033 33.70432957 15.4609375 35.41015625 C17 38 17 38 17 39 C12.71 39 8.42 39 4 39 C0.95962738 25.72944276 -0.16292646 13.57720472 0 0 Z " fill="#A52C2B" transform="translate(93,9)"/>
<path d="M0 0 C2.64 0 5.28 0 8 0 C8 4.29 8 8.58 8 13 C10.64 13 13.28 13 16 13 C16 13.33 16 13.66 16 14 C15.113125 14.2475 14.22625 14.495 13.3125 14.75 C9.92049214 15.82330279 9.92049214 15.82330279 7.375 18.1875 C5 20 5 20 2.75 19.9375 C1 19 1 19 0 16 C0.4375 13.8125 0.4375 13.8125 1 12 C0.01 12 -0.98 12 -2 12 C-3.9335106 14.76343974 -5.5264043 17.65752172 -7.18359375 20.59375 C-7.78300781 21.3878125 -8.38242188 22.181875 -9 23 C-10.32 23 -11.64 23 -13 23 C-13 20.03 -13 17.06 -13 14 C-10.69 14 -8.38 14 -6 14 C-5.34 11.69 -4.68 9.38 -4 7 C-2.68 7 -1.36 7 0 7 C0 4.69 0 2.38 0 0 Z " fill="#CB5230" transform="translate(127,91)"/>
<path d="M0 0 C0.66 0.33 1.32 0.66 2 1 C1.8453125 2.6396875 1.8453125 2.6396875 1.6875 4.3125 C1.790625 5.529375 1.89375 6.74625 2 8 C4.3726974 10.00864359 4.3726974 10.00864359 7 11 C7 8.69 7 6.38 7 4 C7.33 4 7.66 4 8 4 C8.16276042 6.01822917 8.32552083 8.03645833 8.48828125 10.0546875 C8.87393036 12.39519216 8.87393036 12.39519216 12 14 C14.76655324 14.14245897 17.42653306 14.18769445 20.1875 14.125 C21.31188477 14.11146484 21.31188477 14.11146484 22.45898438 14.09765625 C24.30612654 14.07412578 26.15310412 14.03825561 28 14 C27.01 14.33 26.02 14.66 25 15 C25 17.31 25 19.62 25 22 C24.01 22.495 24.01 22.495 23 23 C23 20.69 23 18.38 23 16 C22.28714844 16.11859375 21.57429688 16.2371875 20.83984375 16.359375 C14.05913575 17.27198711 10.55418793 17.07307115 5 13 C4.7819227 16.33515719 4.7819227 16.33515719 6 20 C8.7950426 22.13056077 11.78900363 23.59235109 15 25 C14.67 25.99 14.34 26.98 14 28 C6.39424683 28 1.77723954 23.52275324 -4 19 C-5.56062564 17.8516151 -7.12288598 16.70544499 -8.6875 15.5625 C-9.81208488 14.7354005 -10.92479911 13.8903526 -12 13 C-12 12.67 -12 12.34 -12 12 C-9.69 12 -7.38 12 -5 12 C-5 12.66 -5 13.32 -5 14 C-3.8553125 14.433125 -3.8553125 14.433125 -2.6875 14.875 C0 16 0 16 3 18 C3.0565109 14.63147485 3.0565109 14.63147485 2 11 C-0.2231534 9.1455908 -2.32830337 8.21440756 -5 7 C-4.67 6.34 -4.34 5.68 -4 5 C-2.68 5.66 -1.36 6.32 0 7 C0 4.69 0 2.38 0 0 Z " fill="#A32C2B" transform="translate(89,133)"/>
<path d="M0 0 C2.41294727 2.87697559 1.8984643 5.31409799 1.625 8.9375 C-11.33647274 11.51276798 -11.33647274 11.51276798 -17.375 9.9375 C-19.375 7.9375 -19.375 7.9375 -19.5703125 5.9921875 C-19.50520833 3.97395833 -19.44010417 1.95572917 -19.375 -0.0625 C-3.64361839 -1.6300398 -3.64361839 -1.6300398 0 0 Z " fill="#C7472D" transform="translate(116.375,137.0625)"/>
<path d="M0 0 C2.97 0 5.94 0 9 0 C9 8.25 9 16.5 9 25 C7.02 25 5.04 25 3 25 C3 23.02 3 21.04 3 19 C2.01 19 1.02 19 0 19 C0 12.73 0 6.46 0 0 Z " fill="#A62F2C" transform="translate(98,52)"/>
<path d="M0 0 C1.98 0.66 3.96 1.32 6 2 C5.70876501 7.97031739 2.97185616 10.894534 -1 15 C0.11375 15.433125 0.11375 15.433125 1.25 15.875 C3.56739797 16.82302644 5.77917115 17.84845911 8 19 C8 19.33 8 19.66 8 20 C6.12612523 20.3396019 4.25083303 20.67138691 2.375 21 C1.33085938 21.185625 0.28671875 21.37125 -0.7890625 21.5625 C-3.96253191 21.99489486 -6.80709786 22.28619851 -10 22 C-10.46277344 21.50757813 -10.92554687 21.01515625 -11.40234375 20.5078125 C-13.62111174 18.4138163 -15.5602297 18.72185363 -18.49804688 18.78515625 C-19.17931641 18.81480469 -19.86058594 18.84445313 -20.5625 18.875 C-27.78779841 19.1061008 -27.78779841 19.1061008 -30 18 C-30 17.34 -30 16.68 -30 16 C-27.10452736 15.66324721 -24.20868928 15.33048266 -21.3125 15 C-20.49587891 14.90460938 -19.67925781 14.80921875 -18.83789062 14.7109375 C-14.87139948 14.26129478 -10.99997537 13.86965457 -7 14 C-7 14.99 -7 15.98 -7 17 C-6.278125 16.278125 -5.55625 15.55625 -4.8125 14.8125 C-2.97869324 12.97869324 -1.10452763 11.18412518 0.8125 9.4375 C3.44527316 7.04969567 3.44527316 7.04969567 3 3 C1.060491 3.19188156 1.060491 3.19188156 -1 4 C-2.34231442 5.83983424 -2.34231442 5.83983424 -3.25 8.0625 C-3.75273438 9.16271484 -3.75273438 9.16271484 -4.265625 10.28515625 C-4.50796875 10.85105469 -4.7503125 11.41695312 -5 12 C-5.33 11.34 -5.66 10.68 -6 10 C-4.56477275 6.05312508 -3.32169911 2.68899452 0 0 Z " fill="#F08C3F" transform="translate(115,113)"/>
<path d="M0 0 C0.99 0 1.98 0 3 0 C2.47755347 5.67767191 1.38129028 10.37732299 -0.8125 15.625 C-1.1847168 16.56859375 -1.1847168 16.56859375 -1.56445312 17.53125 C-3.28773962 21.75834461 -5.37657232 25.30102388 -8 29 C-9.98 28.01 -11.96 27.02 -14 26 C-13.4193429 21.47429026 -11.53711091 17.99228716 -9.25 14.125 C-8.88946533 13.50802246 -8.52893066 12.89104492 -8.1574707 12.25537109 C-3.17267985 3.80721582 -3.17267985 3.80721582 0 0 Z " fill="#A52D2B" transform="translate(71,119)"/>
<path d="M0 0 C2 2 2 2 2.375 5.3125 C1.93191573 9.66949535 1.19433844 11.0513799 -2 14 C-5.54416155 15.80316991 -8.01265607 17 -12 17 C-11.96687272 14.91599266 -11.89736131 12.83254234 -11.8125 10.75 C-11.76029297 9.00976562 -11.76029297 9.00976562 -11.70703125 7.234375 C-11 4 -11 4 -8.6484375 1.6015625 C-5.47041978 -0.32024763 -3.65394977 -0.4871933 0 0 Z " fill="#BE402D" transform="translate(59,148)"/>
<path d="M0 0 C4.83992578 6.28764551 8.86837255 11.83729807 8 20 C6.68 20 5.36 20 4 20 C4 18.35 4 16.7 4 15 C1.02148438 15.09765625 1.02148438 15.09765625 -1.95703125 15.1953125 C-4 15 -4 15 -7 13 C-6.02325896 11.01963514 -5.04354018 9.04073867 -4.0625 7.0625 C-3.51722656 5.96035156 -2.97195312 4.85820313 -2.41015625 3.72265625 C-1 1 -1 1 0 0 Z " fill="#A9312B" transform="translate(68,57)"/>
<path d="M0 0 C0.680625 0.309375 1.36125 0.61875 2.0625 0.9375 C7.29564063 2.8303381 12.47158546 3.13483938 18 3 C18 5.31 18 7.62 18 10 C12.54289085 11.81903638 7.67053611 11.74577505 2.5 9.4375 C0 7 0 7 -0.375 3.25 C-0.25125 2.1775 -0.1275 1.105 0 0 Z " fill="#C8472D" transform="translate(94,146)"/>
<path d="M0 0 C1.9375 1.125 1.9375 1.125 3 3 C3.4375 6 3.4375 6 3 9 C0.75944941 11.58525068 -0.6770332 11.95386189 -4.0625 12.4375 C-7 12 -7 12 -8.875 10.3125 C-10.20607683 7.57639764 -10.46233717 6.00519158 -10 3 C-7.66004009 -0.99169632 -4.2277022 -0.45296809 0 0 Z " fill="#A52E2B" transform="translate(147,89)"/>
<path d="M0 0 C1.875 0.75 1.875 0.75 2.875 1.75 C2.94758946 3.93639453 2.95873783 6.12500389 2.9375 8.3125 C2.92847656 9.51003906 2.91945313 10.70757812 2.91015625 11.94140625 C2.89855469 12.86824219 2.88695312 13.79507813 2.875 14.75 C0.235 14.75 -2.405 14.75 -5.125 14.75 C-5.20607583 12.81318839 -5.26422475 10.8754066 -5.3125 8.9375 C-5.34730469 7.85855469 -5.38210937 6.77960938 -5.41796875 5.66796875 C-5.125 2.75 -5.125 2.75 -3.74609375 0.84765625 C-2.125 -0.25 -2.125 -0.25 0 0 Z " fill="#BB3C2C" transform="translate(32.125,89.25)"/>
<path d="M0 0 C4.51346392 3.54629308 8.65732731 7.29418065 12 12 C12 12.66 12 13.32 12 14 C8.04 14 4.08 14 0 14 C0 9.38 0 4.76 0 0 Z " fill="#F59A4D" transform="translate(34,132)"/>
<path d="M0 0 C3.12915801 2.6862618 4.7642676 5.95391929 6.6875 9.5625 C7.62142578 11.29693359 7.62142578 11.29693359 8.57421875 13.06640625 C10 16 10 16 10 18 C7.03 18 4.06 18 1 18 C0.10395632 11.95170514 -0.11269443 6.1105424 0 0 Z " fill="#A62F2C" transform="translate(128,49)"/>
<path d="M0 0 C0.33 0 0.66 0 1 0 C1 1.98 1 3.96 1 6 C3.64 6 6.28 6 9 6 C9 4.02 9 2.04 9 0 C9.33 0 9.66 0 10 0 C10 1.98 10 3.96 10 6 C11.32 6.33 12.64 6.66 14 7 C11.36 7 8.72 7 6 7 C6 9.31 6 11.62 6 14 C4.68 14 3.36 14 2 14 C2.061875 14.94875 2.12375 15.8975 2.1875 16.875 C2.125625 17.90625 2.06375 18.9375 2 20 C-1 22 -1 22 -4.1875 21.625 C-5.115625 21.41875 -6.04375 21.2125 -7 21 C-7 20.67 -7 20.34 -7 20 C-4.69 20 -2.38 20 0 20 C0 18.02 0 16.04 0 14 C-1.32 13.67 -2.64 13.34 -4 13 C-3 12 -3 12 -1.15234375 11.90234375 C0.8984375 11.93489583 2.94921875 11.96744792 5 12 C5 10.35 5 8.7 5 7 C2.69 7 0.38 7 -2 7 C-2.66 8.32 -3.32 9.64 -4 11 C-4 10.01 -4 9.02 -4 8 C-4.99 8 -5.98 8 -7 8 C-7 7.34 -7 6.68 -7 6 C-4.69 6 -2.38 6 0 6 C0 4.02 0 2.04 0 0 Z " fill="#A7312A" transform="translate(121,84)"/>
<path d="M0 0 C1.313702 0.6433848 2.62592898 1.28978215 3.9375 1.9375 C4.66839844 2.29714844 5.39929688 2.65679687 6.15234375 3.02734375 C8 4 8 4 9 5 C9.04092937 7.33297433 9.04241723 9.66705225 9 12 C6.0280615 10.87548273 3.66559313 9.77706209 1 8 C1 7.34 1 6.68 1 6 C-1.64 6.33 -4.28 6.66 -7 7 C-7.33 6.34 -7.66 5.68 -8 5 C-5.36 5 -2.72 5 0 5 C0 3.35 0 1.7 0 0 Z " fill="#C6462D" transform="translate(83,139)"/>
<path d="M0 0 C2.0625 0.4375 2.0625 0.4375 4 1 C3.73471333 4.80244228 3.28424344 6.65890788 0.8125 9.625 C-2.03066168 12.02589209 -4.85331757 14.02417615 -8 16 C-6.49387553 10.66010414 -4.01822198 4.01822198 0 0 Z " fill="#B0372C" transform="translate(115,115)"/>
<path d="M0 0 C2.93453261 0.36681658 3.86437246 0.86437246 6 3 C6.125 6.625 6.125 6.625 6 10 C3.36 10 0.72 10 -2 10 C-2.1953125 3.9453125 -2.1953125 3.9453125 -2 2 C-1.34 1.34 -0.68 0.68 0 0 Z " fill="#BB3F2C" transform="translate(30,73)"/>
<path d="M0 0 C3.3 0 6.6 0 10 0 C10.04254356 1.99954746 10.04080783 4.00041636 10 6 C9 7 9 7 6.93359375 7.09765625 C6.10988281 7.08605469 5.28617187 7.07445312 4.4375 7.0625 C3.61121094 7.05347656 2.78492187 7.04445312 1.93359375 7.03515625 C1.29550781 7.02355469 0.65742187 7.01195312 0 7 C0 4.69 0 2.38 0 0 Z " fill="#C8472D" transform="translate(114,148)"/>
<path d="M0 0 C3.3 0 6.6 0 10 0 C10 2.31 10 4.62 10 7 C6.7 7 3.4 7 0 7 C0 4.69 0 2.38 0 0 Z " fill="#C9482D" transform="translate(120,138)"/>
<path d="M0 0 C1.98 0 3.96 0 6 0 C5.34 0.66 4.68 1.32 4 2 C6.45250093 3.22625047 7.84310435 3.03425355 10.5703125 2.87890625 C11.46621094 2.83056641 12.36210938 2.78222656 13.28515625 2.73242188 C14.22230469 2.67634766 15.15945312 2.62027344 16.125 2.5625 C17.06988281 2.51029297 18.01476562 2.45808594 18.98828125 2.40429688 C21.3258419 2.27443239 23.66299545 2.1394613 26 2 C25.67 2.66 25.34 3.32 25 4 C22.66752239 4.33926947 20.33414529 4.67240066 18 5 C17.34 5.66 16.68 6.32 16 7 C15.67 6.67 15.34 6.34 15 6 C12.30345146 5.92680379 9.63308542 5.90757463 6.9375 5.9375 C5.79958008 5.94426758 5.79958008 5.94426758 4.63867188 5.95117188 C2.75908129 5.9629932 0.87953101 5.98092922 -1 6 C0.32 5.34 1.64 4.68 3 4 C2.01 3.34 1.02 2.68 0 2 C0 1.34 0 0.68 0 0 Z " fill="#C2412D" transform="translate(99,131)"/>
<path d="M0 0 C1.66015625 1.515625 1.66015625 1.515625 3 3 C0.58492672 3.39049692 -1.83066712 3.76277086 -4.25 4.125 C-5.27287109 4.29322266 -5.27287109 4.29322266 -6.31640625 4.46484375 C-10.16969746 5.02600266 -12.7280825 5.27684981 -16 3 C-16 2.34 -16 1.68 -16 1 C-3.70138889 -0.36111111 -3.70138889 -0.36111111 0 0 Z " fill="#EF8A3E" transform="translate(114,136)"/>
<path d="M0 0 C3.63 0 7.26 0 11 0 C11 1.65 11 3.3 11 5 C7.37 5 3.74 5 0 5 C0 3.35 0 1.7 0 0 Z " fill="#C2462D" transform="translate(115,78)"/>
<path d="M0 0 C0.33 0 0.66 0 1 0 C1.33 4.62 1.66 9.24 2 14 C-0.64 13.67 -3.28 13.34 -6 13 C-4.14332089 8.57933544 -2.18740977 4.27065717 0 0 Z " fill="#D14F30" transform="translate(67,58)"/>
<path d="M0 0 C1.98 0 3.96 0 6 0 C6 1.32 6 2.64 6 4 C6.99 4 7.98 4 9 4 C9 4.66 9 5.32 9 6 C6.36 6 3.72 6 1 6 C1 7.98 1 9.96 1 12 C0.67 12 0.34 12 0 12 C0 10.02 0 8.04 0 6 C-1.98 6 -3.96 6 -6 6 C-6 5.67 -6 5.34 -6 5 C-4.02 5 -2.04 5 0 5 C0 3.35 0 1.7 0 0 Z " fill="#A7302B" transform="translate(126,72)"/>
<path d="M0 0 C1.67542976 0.28604898 3.34385343 0.61781233 5 1 C5 3.64 5 6.28 5 9 C3.02 9 1.04 9 -1 9 C-1.09765625 2.84765625 -1.09765625 2.84765625 -1 1 C-0.67 0.67 -0.34 0.34 0 0 Z " fill="#A42D2C" transform="translate(87,57)"/>
<path d="M0 0 C0.86022974 10.74331367 0.86022974 10.74331367 -2.1875 14.5625 C-4.85923262 16.8780016 -6.57491174 18.20959502 -10 19 C-11.3433953 18.70986562 -12.67988956 18.38235757 -14 18 C-12.95199219 17.51080078 -12.95199219 17.51080078 -11.8828125 17.01171875 C-10.51769531 16.35623047 -10.51769531 16.35623047 -9.125 15.6875 C-8.22007813 15.25824219 -7.31515625 14.82898438 -6.3828125 14.38671875 C-3.73550524 13.0800612 -3.73550524 13.0800612 -2 10 C-1.92094936 7.66800612 -1.91201231 5.33167378 -2 3 C-3.98 2.34 -5.96 1.68 -8 1 C-8 0.67 -8 0.34 -8 0 C-2.25 -1.125 -2.25 -1.125 0 0 Z " fill="#EC8741" transform="translate(62,147)"/>
<path d="M0 0 C4.875 1.875 4.875 1.875 6 3 C6.04092937 5.33297433 6.04241723 7.66705225 6 10 C1.125 8.125 1.125 8.125 0 7 C-0.04092937 4.66702567 -0.04241723 2.33294775 0 0 Z " fill="#C6452C" transform="translate(90,134)"/>
<path d="M0 0 C1.98 0 3.96 0 6 0 C6 3.38023517 5.12544378 5.83468937 4 9 C2.68 9 1.36 9 0 9 C0 6.03 0 3.06 0 0 Z " fill="#C1462D" transform="translate(114,105)"/>
<path d="M0 0 C1.65 0 3.3 0 5 0 C5 2.97 5 5.94 5 9 C3.35 9 1.7 9 0 9 C0 6.03 0 3.06 0 0 Z " fill="#A22C2B" transform="translate(53,84)"/>
<path d="M0 0 C3.71888239 0.50712033 6.73454239 1.11608215 10 3 C6.79663178 5.83374881 4.21912747 6.5205537 0 7 C0 4.69 0 2.38 0 0 Z " fill="#B6372C" transform="translate(94,10)"/>
<path d="M0 0 C2 2 2 2 2.125 5.625 C2.08375 6.73875 2.0425 7.8525 2 9 C1.01 9.495 1.01 9.495 0 10 C-0.33 7.36 -0.66 4.72 -1 2 C-4.93075644 2.57452746 -4.93075644 2.57452746 -8 5 C-8.40047444 7.32275177 -8.7397104 9.65739357 -9 12 C-9.33 12 -9.66 12 -10 12 C-10.61986755 3.78675497 -10.61986755 3.78675497 -8.375 0.9375 C-5.38881266 -0.24125816 -3.18336574 -0.34601802 0 0 Z " fill="#B5372B" transform="translate(59,148)"/>
<path d="M0 0 C1.21816406 0.03480469 1.21816406 0.03480469 2.4609375 0.0703125 C3.68683594 0.09738281 3.68683594 0.09738281 4.9375 0.125 C5.87722656 0.15980469 5.87722656 0.15980469 6.8359375 0.1953125 C6.8359375 1.5153125 6.8359375 2.8353125 6.8359375 4.1953125 C4.03723723 5.59466263 1.93094958 5.44796655 -1.1640625 5.1953125 C-3.0390625 3.6953125 -3.0390625 3.6953125 -4.1640625 2.1953125 C-2.1640625 0.1953125 -2.1640625 0.1953125 0 0 Z " fill="#E87E3B" transform="translate(106.1640625,129.8046875)"/>
<path d="M0 0 C2.64 0 5.28 0 8 0 C8 1.65 8 3.3 8 5 C5.36 5 2.72 5 0 5 C0 3.35 0 1.7 0 0 Z " fill="#C3472D" transform="translate(127,78)"/>
<path d="M0 0 C0.66 0.33 1.32 0.66 2 1 C2 7.27 2 13.54 2 20 C1.01 20 0.02 20 -1 20 C-3.18777466 21.9375006 -3.18777466 21.9375006 -5 24 C-3.94124926 20.59687262 -2.99097846 17.98646769 -1 15 C-0.70008931 12.41114829 -0.49134775 9.90850918 -0.375 7.3125 C-0.33632812 6.61060547 -0.29765625 5.90871094 -0.2578125 5.18554688 C-0.1637666 3.45745345 -0.0808032 1.72876325 0 0 Z " fill="#BE422F" transform="translate(92,8)"/>
<path d="M0 0 C0.33 0.66 0.66 1.32 1 2 C-2.95659266 3.31886422 -5.82339427 3.26518132 -10 3 C-10.66 2.01 -11.32 1.02 -12 0 C-3.05084746 -1.34237288 -3.05084746 -1.34237288 0 0 Z " fill="#F08C3F" transform="translate(128,135)"/>
<path d="M0 0 C2.31 0 4.62 0 7 0 C7 1.65 7 3.3 7 5 C4.69 5 2.38 5 0 5 C0 3.35 0 1.7 0 0 Z " fill="#C0432C" transform="translate(114,85)"/>
<path d="M0 0 C1.43655854 -0.08131463 2.8744483 -0.13933559 4.3125 -0.1875 C5.51326172 -0.23970703 5.51326172 -0.23970703 6.73828125 -0.29296875 C9.47851584 0.06198392 10.29171079 0.89366282 12 3 C3.42857143 4.42857143 3.42857143 4.42857143 0 2 C0 1.34 0 0.68 0 0 Z " fill="#ED873E" transform="translate(91,133)"/>
<path d="M0 0 C2.64752004 2.57784846 4.94432065 4.91648098 7 8 C4.69 8 2.38 8 0 8 C0 5.36 0 2.72 0 0 Z " fill="#E87634" transform="translate(49,111)"/>
<path d="M0 0 C1.98 0 3.96 0 6 0 C6 1.98 6 3.96 6 6 C3.03 5.505 3.03 5.505 0 5 C0 3.35 0 1.7 0 0 Z " fill="#C2462D" transform="translate(115,98)"/>
<path d="M0 0 C0.33 0 0.66 0 1 0 C1 4.29 1 8.58 1 13 C3.64 13 6.28 13 9 13 C9 13.33 9 13.66 9 14 C6 15 3 16 0 17 C0 11.39 0 5.78 0 0 Z " fill="#D15831" transform="translate(134,91)"/>
<path d="M0 0 C1.32 0 2.64 0 4 0 C5.125 4.75 5.125 4.75 4 7 C2.68 7 1.36 7 0 7 C0 4.69 0 2.38 0 0 Z " fill="#C9492D" transform="translate(126,147)"/>
<path d="M0 0 C-0.33 0.66 -0.66 1.32 -1 2 C-3.33247761 2.33926947 -5.66585471 2.67240066 -8 3 C-8.66 3.66 -9.32 4.32 -10 5 C-10.33 4.34 -10.66 3.68 -11 3 C-11.99 2.34 -12.98 1.68 -14 1 C-9.23692563 0.04738513 -4.8333472 -0.08333357 0 0 Z " fill="#C84B2F" transform="translate(125,133)"/>
<path d="M0 0 C2.64 0 5.28 0 8 0 C8 0.99 8 1.98 8 3 C5.36 3 2.72 3 0 3 C0 2.01 0 1.02 0 0 Z " fill="#D95B30" transform="translate(73,84)"/>
<path d="M0 0 C1.98 0 3.96 0 6 0 C6 1.32 6 2.64 6 4 C4.02 4 2.04 4 0 4 C0 2.68 0 1.36 0 0 Z " fill="#C0432C" transform="translate(114,72)"/>
<path d="M0 0 C2.31 0 4.62 0 7 0 C7 0.99 7 1.98 7 3 C4.69 3 2.38 3 0 3 C0 2.01 0 1.02 0 0 Z " fill="#D7572F" transform="translate(70,107)"/>
<path d="M0 0 C2.31 0 4.62 0 7 0 C7 0.99 7 1.98 7 3 C4.69 3 2.38 3 0 3 C0 2.01 0 1.02 0 0 Z " fill="#D75830" transform="translate(101,99)"/>
<path d="M0 0 C2.31 0 4.62 0 7 0 C7 0.99 7 1.98 7 3 C4.69 3 2.38 3 0 3 C0 2.01 0 1.02 0 0 Z " fill="#D7572F" transform="translate(67,90)"/>
<path d="M0 0 C2.31 0 4.62 0 7 0 C7 0.99 7 1.98 7 3 C4.69 3 2.38 3 0 3 C0 2.01 0 1.02 0 0 Z " fill="#D75930" transform="translate(101,85)"/>
<path d="M0 0 C1.32 0 2.64 0 4 0 C4 1.65 4 3.3 4 5 C2.68 5 1.36 5 0 5 C0 3.35 0 1.7 0 0 Z " fill="#C2462D" transform="translate(131,85)"/>
<path d="M0 0 C1.98 0 3.96 0 6 0 C6 0.99 6 1.98 6 3 C4.02 3 2.04 3 0 3 C0 2.01 0 1.02 0 0 Z " fill="#D7582F" transform="translate(64,99)"/>
</svg>
